<svg width="30" height="30" viewBox="0 0 30 30" fill="none" xmlns="http://www.w3.org/2000/svg">
<path fill-rule="evenodd" clip-rule="evenodd" d="M19.6475 0.772069C18.858 0.50691 18.0389 0.306077 17.1964 0.175798L28.8014 20.2735C29.1028 19.495 29.3405 18.6848 29.5084 17.8493L19.6475 0.772069ZM29.7967 14.5479C29.6756 9.30411 26.8448 4.72999 22.6499 2.17097L29.7967 14.5479ZM12.8726 0.136806C13.5356 0.046597 14.2125 0 14.9004 0L27.8059 22.35C27.4656 22.9379 27.0863 23.5004 26.6715 24.034L12.8726 0.136806ZM10.9108 0.540031C10.3094 0.706731 9.72328 0.910194 9.15501 1.14785L23.936 26.7458C24.4291 26.3693 24.898 25.9627 25.34 25.5287L10.9108 0.540031ZM0 14.8983C0 9.38436 2.9959 4.57002 7.44894 1.99385L22.3518 27.8028C20.1599 29.0709 17.6149 29.7967 14.9004 29.7967C6.67112 29.7967 0 23.1265 0 14.8983Z" fill="white"/>
</svg>
