<?xml version="1.0" encoding="UTF-8"?>
<svg version="1.1" xmlns="http://www.w3.org/2000/svg" width="512" height="512">
<path d="M0 0 C1.05034927 0.00223572 1.05034927 0.00223572 2.12191772 0.0045166 C13.83049236 0.04941748 25.08229368 0.96381582 36.5625 3.3125 C37.65498047 3.52132813 37.65498047 3.52132813 38.76953125 3.734375 C65.37855632 8.83877057 109.20271645 19.14219534 127.5625 41.3125 C127.8125 45.0625 127.8125 45.0625 127.5625 48.3125 C121.27749861 50.0932504 116.35639893 50.29208491 109.88671875 49.62109375 C106.16885331 49.27595701 102.4829209 49.09212539 98.75 49 C97.54730469 48.96261719 96.34460938 48.92523438 95.10546875 48.88671875 C90.18554466 49.47797754 86.52066261 51.15933072 83.2043457 54.8059082 C81.91664013 56.53212283 80.76024146 58.29504089 79.625 60.125 C79.20532959 60.78008545 78.78565918 61.4351709 78.35327148 62.11010742 C66.66013335 79.9095703 66.66013335 79.9095703 63.5625 100.3125 C64.84887097 104.52893819 66.01579517 106.80393736 69.25 109.8125 C73.33740111 111.66339861 76.36745337 111.62711541 80.5625 110.3125 C85.05877958 107.85227155 88.54306741 105.37778284 90.20385742 100.3840332 C91.05485189 97.25455859 91.82412815 94.1086876 92.58007812 90.95507812 C93.79246276 86.21932324 95.01867388 82.87717215 98.5625 79.3125 C101 78.1875 101 78.1875 103.5625 78.3125 C107.71008241 81.49552836 109.24445981 84.34042876 110.5625 89.3125 C110.77464094 91.94635377 110.89638661 94.43383445 110.875 97.0625 C110.87081055 97.76552246 110.86662109 98.46854492 110.86230469 99.19287109 C110.65713867 108.70253422 108.29719204 116.70932719 101.3125 123.5 C96.71830509 126.5279921 92.16600029 127.9557927 86.83984375 129.140625 C86.15897705 129.29337891 85.47811035 129.44613281 84.77661133 129.60351562 C83.43062621 129.89923282 82.08015826 130.17555005 80.7253418 130.42773438 C69.51720034 132.88659951 61.4527305 141.94714475 53.6875 149.8125 C52.76453125 150.72386719 51.8415625 151.63523438 50.890625 152.57421875 C42.78951928 160.1529764 42.78951928 160.1529764 39.4609375 170.26171875 C39.61820312 171.16535156 39.77546875 172.06898438 39.9375 173 C40.57671507 176.82987333 40.86651853 179.05807383 38.5625 182.3125 C32.97037937 184.90144474 27.22279672 186.14478274 21.19921875 187.37109375 C18.09373783 188.47986546 17.14609485 189.45675061 15.5625 192.3125 C15.00824919 196.58814908 15.2573374 198.74576945 17.3125 202.5625 C20.15357393 206.03492369 22.06098238 207.80061899 26.3125 209.25 C31.56352675 209.35098128 35.60970999 207.07134853 39.48730469 203.57885742 C41.39976487 201.57409413 43.24210791 199.5261604 45.0625 197.4375 C52.29997039 189.22487571 59.31972499 181.99245489 70.5625 180.3125 C76.13630724 180.14359675 80.91803364 180.6077287 86.0625 182.8125 C89.46828933 186.21828933 90.90938422 189.84590831 92.5625 194.3125 C92.975 195.323125 93.3875 196.33375 93.8125 197.375 C94.06 198.014375 94.3075 198.65375 94.5625 199.3125 C95.8825 199.3125 97.2025 199.3125 98.5625 199.3125 C99.76522819 196.90704362 99.66321472 195.36253047 99.625 192.6875 C99.61146484 191.46160156 99.61146484 191.46160156 99.59765625 190.2109375 C99.58605469 189.58445313 99.57445312 188.95796875 99.5625 188.3125 C98.840625 188.065 98.11875 187.8175 97.375 187.5625 C93.69852647 185.92851177 90.40148291 183.99046581 88.5625 180.3125 C88.3125 177.3125 88.3125 177.3125 88.5625 174.3125 C91.5625 172.3125 91.5625 172.3125 93.90625 172.48828125 C101.18302977 174.74622321 108.54442516 179.85922829 112.5625 186.3125 C113.68500796 189.41878568 114.67651649 192.52342592 115.5703125 195.703125 C116.38894555 198.6161028 116.38894555 198.6161028 119.5625 200.3125 C121.68275821 200.26925584 121.68275821 200.26925584 123.5625 199.3125 C124.71274772 196.64163683 125.60493694 194.14348419 126.4375 191.375 C129.30299092 182.60441683 132.35384066 173.44291209 140.5625 168.3125 C141.8309375 167.44625 141.8309375 167.44625 143.125 166.5625 C149.01040173 164.42235392 155.15395735 164.14519087 161.12890625 166.19140625 C166.21776661 168.80041587 170.71221265 172.27878498 173.5625 177.3125 C174.28455452 181.50041622 174.05838965 183.41989863 172 187.125 C166.24223667 192.2922235 158.9198483 191.48082558 151.703125 191.14648438 C147.07272363 191.02616033 144.24532519 191.43878034 140.5625 194.3125 C138.63056106 196.85914679 138.55914326 198.1480196 138.625 201.375 C139.31342356 204.38256933 139.31342356 204.38256933 141.5 206.0625 C144.26904762 207.19272352 146.57677847 207.73491428 149.5 208.25 C153.99516914 209.06730348 157.05388853 210.24246496 160.5625 213.3125 C163.07119522 217.13007968 162.73872999 220.79760608 162.0859375 225.1640625 C161.27063147 228.51046786 160.19259417 230.07691996 157.5625 232.3125 C150.34900021 235.84225186 142.93724602 235.78001896 135.0625 235.6875 C133.82161621 235.67734863 132.58073242 235.66719727 131.30224609 235.65673828 C113.53219548 235.35806251 99.4297331 231.86737546 83.75 223.125 C71.1963499 216.16293204 59.45977269 216.01554942 45.5625 219.3125 C44.76585937 219.49554688 43.96921875 219.67859375 43.1484375 219.8671875 C30.57352314 223.18499878 20.08332788 229.60774308 10.5625 238.3125 C9.83289063 238.9725 9.10328125 239.6325 8.3515625 240.3125 C-3.02680607 251.12412991 -13.31448703 267.33508818 -14.4375 283.3125 C-14.49421875 284.07820313 -14.5509375 284.84390625 -14.609375 285.6328125 C-15.02064445 297.43624582 -11.38170211 307.42233885 -3.62109375 316.41796875 C4.66838327 324.25749503 14.75795395 328.51034111 26.0390625 328.375 C26.7643515 328.37121338 27.4896405 328.36742676 28.23690796 328.36352539 C31.32516582 328.3472847 34.4132886 328.31936155 37.50146484 328.29199219 C64.95460717 328.06969954 64.95460717 328.06969954 74.34765625 335.77734375 C84.61723385 346.51968963 85.93620293 362.5510793 85.8125 376.625 C85.80452393 378.26976318 85.80452393 378.26976318 85.79638672 379.94775391 C85.69177179 388.89299273 84.80177304 397.33384494 82.984375 406.1015625 C79.56411736 423.05626822 81.37557873 441.58163343 89.875 456.875 C92.55327685 460.81847512 94.96397331 462.1023614 99.5625 463.3125 C108.74127983 463.3125 116.85103213 456.75765552 123.1875 450.7578125 C129.44500126 444.31505626 134.40296402 437.15223174 139.29296875 429.6484375 C141.89786703 425.73931644 144.77228541 422.04215855 147.625 418.3125 C157.09002379 405.79433798 163.30619708 394.92090785 163.8125 378.875 C164.55196866 366.64418838 172.17733653 356.67687229 179.94433594 347.71875 C192.00270886 334.38628764 192.00270886 334.38628764 199.5625 318.3125 C199.17985942 315.64134894 199.17985942 315.64134894 198.5625 313.3125 C197.92183594 313.16554688 197.28117187 313.01859375 196.62109375 312.8671875 C187.84650808 310.59181059 183.29917041 307.43004808 178.53442383 299.65112305 C170.04535667 285.07525248 163.11199164 268.43965645 164.5625 251.3125 C164.8925 250.6525 165.2225 249.9925 165.5625 249.3125 C168.27397415 249.3125 170.00113878 249.77735619 171.984375 251.66796875 C179.20807611 260.77526935 183.6934012 271.89596465 187.43359375 282.80664062 C189.42406369 288.47137919 192.04504265 294.39149317 197.5625 297.3125 C201.20773044 297.86720898 203.08477128 297.55667245 206.375 295.875 C214.40780167 289.89808689 221.86208028 282.68652341 223.62109375 272.53515625 C223.89320984 269.44863868 223.96682396 267.91913442 222.23291016 265.31762695 C220.28140516 263.46197544 218.2721323 261.81266693 216.125 260.1875 C208.91755112 254.62544007 208.91755112 254.62544007 207.98388672 251.17285156 C207.90234375 249.0078125 207.90234375 249.0078125 208.5625 245.3125 C211.5625 243.3125 211.5625 243.3125 213.48046875 243.37890625 C218.99378841 244.5840553 224.40867921 246.0667886 229.8125 247.6875 C230.48563232 247.8841626 231.15876465 248.0808252 231.85229492 248.28344727 C237.20936704 249.95087154 241.81896321 251.9395397 245.20654297 256.55004883 C246.80926046 259.8152178 246.94981384 262.03304997 246.9609375 265.66015625 C246.97036377 267.51241821 246.97036377 267.51241821 246.97998047 269.40209961 C246.96596191 270.71315674 246.95194336 272.02421387 246.9375 273.375 C246.93284729 274.04822296 246.92819458 274.72144592 246.92340088 275.41506958 C246.56308146 319.87228209 229.3850473 363.81330273 204.5625 400.3125 C204.11003906 400.9828125 203.65757812 401.653125 203.19140625 402.34375 C196.25098786 412.57569473 188.79792204 422.09750853 180.5625 431.3125 C179.758125 432.22773438 178.95375 433.14296875 178.125 434.0859375 C169.90825773 443.3583029 161.2928633 451.63748082 151.5625 459.3125 C150.59828125 460.09367187 149.6340625 460.87484375 148.640625 461.6796875 C122.19652386 482.687311 78.7964426 511.21320878 43.5625 508.3125 C39.11113962 507.27237039 34.8600105 505.85982967 30.5625 504.3125 C11.34483576 497.61144647 -10.89411567 501.16371925 -29.4375 508.3125 C-30.13528564 508.65506836 -30.83307129 508.99763672 -31.55200195 509.35058594 C-37.1885058 512.10886196 -41.74559663 512.95385989 -48 512.8125 C-48.86915039 512.80114014 -49.73830078 512.78978027 -50.63378906 512.77807617 C-58.98425181 512.53117033 -66.50059643 510.77655852 -74.4375 508.3125 C-75.85886587 507.89798974 -77.28075276 507.48526241 -78.703125 507.07421875 C-97.86088613 501.43842307 -97.86088613 501.43842307 -103.4375 493.3125 C-108.82558322 482.53633355 -109.42460102 466.8764029 -106.11328125 455.23046875 C-105.77876953 454.28107422 -105.77876953 454.28107422 -105.4375 453.3125 C-105.20417969 452.62800781 -104.97085938 451.94351562 -104.73046875 451.23828125 C-101.29565813 442.50225606 -95.37893599 433.8752451 -88.5625 427.4375 C-79.69703727 418.99757948 -73.21691521 409.00582986 -68.765625 397.66015625 C-66.66773397 392.3722368 -64.03243348 387.36983004 -61.4375 382.3125 C-60.49721903 380.45974206 -59.55954307 378.60565879 -58.625 376.75 C-58.02751953 375.57244141 -58.02751953 375.57244141 -57.41796875 374.37109375 C-54.82290595 368.92249575 -54.83297311 363.88173928 -56.1875 358.125 C-59.86360418 353.52986978 -65.01591646 352.21835805 -70.4375 350.3125 C-99.61861481 340.02871678 -99.61861481 340.02871678 -108.4375 328.3125 C-120.74087011 312.23748366 -137.02037352 299.28079442 -157.4375 295.3125 C-159.83025222 295.26465204 -162.22438817 295.27488151 -164.6171875 295.3203125 C-166.03514905 295.33783199 -167.45311827 295.35473996 -168.87109375 295.37109375 C-171.09185244 295.40199894 -173.31222272 295.43749421 -175.53271484 295.48388672 C-177.68592018 295.52646287 -179.8386742 295.54973065 -181.9921875 295.5703125 C-183.27593262 295.5923877 -184.55967773 295.61446289 -185.88232422 295.63720703 C-190.8975593 295.17914752 -194.17078254 293.65160132 -197.625 290 C-200.78682363 285.31177876 -202.46766639 281.19582199 -203.625 275.6875 C-204.58270615 271.83601703 -204.58270615 271.83601703 -207.0546875 268.890625 C-209.14550092 267.86621039 -211.24066187 267.08306042 -213.4375 266.3125 C-215.15851078 265.54878489 -216.86682377 264.75592593 -218.5625 263.9375 C-219.34882813 263.57914062 -220.13515625 263.22078125 -220.9453125 262.8515625 C-224.91971917 260.39714835 -228.7443437 257.93372529 -229.99414062 253.20751953 C-230.21058843 250.79515719 -230.21841126 248.48259234 -230.125 246.0625 C-230.10574463 245.21929199 -230.08648926 244.37608398 -230.06665039 243.50732422 C-229.73155379 236.03719219 -228.26218199 230.03044668 -222.7578125 224.6796875 C-217.66706439 220.72021675 -211.93140943 218.50076132 -205.4375 219.3125 C-198.42907983 222.23267507 -196.37846112 228.67969406 -193.4375 235.3125 C-192.4475 235.3125 -191.4575 235.3125 -190.4375 235.3125 C-190.31221924 234.76948242 -190.18693848 234.22646484 -190.05786133 233.66699219 C-185.07649746 212.31377164 -177.43661024 196.20430849 -163.25 179.484375 C-161.31399476 177.24341478 -161.31399476 177.24341478 -159.4375 174.3125 C-158.7775 174.3125 -158.1175 174.3125 -157.4375 174.3125 C-157.2209375 173.78269531 -157.004375 173.25289062 -156.78125 172.70703125 C-149.84769433 160.35159629 -136.80285041 150.44003468 -123.4375 146.3125 C-119.96358462 145.38092279 -116.47535487 144.51244013 -112.97021484 143.70629883 C-106.70997338 142.48097264 -106.70997338 142.48097264 -102.18359375 138.4453125 C-100.59586761 133.90657705 -101.6495691 129.35704483 -103.34375 124.9609375 C-106.2608768 118.90987042 -109.87296856 113.25958098 -113.44921875 107.58203125 C-115.86234687 103.61388147 -117.96833358 99.52621518 -120.015625 95.359375 C-121.28485264 93.24165442 -121.28485264 93.24165442 -123.234375 92.203125 C-126.89467313 92.38484193 -129.02378887 94.78779567 -131.4375 97.3125 C-133.23969569 99.51859014 -134.84589543 101.82650322 -136.4375 104.1875 C-137.30242917 105.43126102 -138.1695992 106.67346687 -139.0390625 107.9140625 C-139.6563623 108.79626465 -139.6563623 108.79626465 -140.28613281 109.69628906 C-146.3695574 118.23578668 -146.3695574 118.23578668 -151.4375 120.3125 C-156.27828166 120.78096274 -158.47139668 120.81344246 -162.8125 118.5625 C-165.78746729 116.01252804 -167.10826374 114.12503226 -167.80859375 110.26953125 C-168.07827051 101.56055818 -164.37823903 96.20825028 -158.60620117 89.9140625 C-151.99648063 83.04614124 -144.51214575 78.19336263 -136.31787109 73.41455078 C-133.575006 71.80700819 -130.87868931 70.12982332 -128.1875 68.4375 C-126.94226563 67.66792969 -126.94226563 67.66792969 -125.671875 66.8828125 C-123.29010016 65.2089078 -121.34815259 63.50975047 -119.4375 61.3125 C-119.10251699 58.64415034 -119.10251699 58.64415034 -119.4375 56.3125 C-122.03839885 55.01205057 -123.83623708 55.2634655 -126.7421875 55.35546875 C-127.80050781 55.37673828 -128.85882813 55.39800781 -129.94921875 55.41992188 C-132.18390871 55.47312878 -134.4183498 55.53815505 -136.65234375 55.61523438 C-138.24369141 55.64133789 -138.24369141 55.64133789 -139.8671875 55.66796875 C-140.83897949 55.69528076 -141.81077148 55.72259277 -142.81201172 55.75073242 C-146.21282676 55.18308662 -147.36969496 54.02183928 -149.4375 51.3125 C-149.70590488 47.7561354 -149.38220615 45.51536909 -147.13671875 42.65625 C-136.75890853 32.89972775 -122.95064054 26.19781531 -110.19189453 20.14697266 C-108.66112104 19.4188647 -107.14018729 18.67014128 -105.62109375 17.91796875 C-94.26026074 12.45436204 -82.0796549 8.73860079 -69.8125 5.9375 C-68.73053345 5.68601196 -68.73053345 5.68601196 -67.62670898 5.42944336 C-62.81036279 4.39237752 -58.3629797 4.16860958 -53.4375 4.3125 C-52.625 6.4375 -52.625 6.4375 -52.4375 9.3125 C-55.43838193 13.76542158 -59.27912092 16.99076575 -63.328125 20.4765625 C-74.76512367 30.43098726 -82.25454138 41.34977666 -84.81640625 56.5625 C-85.24570341 63.43125448 -82.13353773 70.4493656 -78 75.8125 C-74.6767524 79.05469278 -72.46651335 80.16403561 -67.875 80.5 C-64.36553826 78.79026223 -63.9828774 76.35359089 -62.5625 72.8359375 C-58.31374347 63.30574055 -50.11175836 57.63908881 -42.046875 51.53466797 C-27.44369401 40.44493434 -21.5743689 27.6559115 -18.92773438 9.86914062 C-18.77498047 8.92361328 -18.62222656 7.97808594 -18.46484375 7.00390625 C-18.27523071 5.72302124 -18.27523071 5.72302124 -18.08178711 4.41625977 C-16.0299905 -2.28337321 -5.58794604 -0.02883265 0 0 Z M29.5625 131.3125 C26.39078455 136.23483762 24.75834909 140.3388075 25.5625 146.3125 C26.37702316 148.87101025 26.37702316 148.87101025 28.5625 150.3125 C31.73353488 150.77281152 33.54573133 150.99598665 36.5625 150.3125 C40.24614408 147.50972733 42.38837242 144.79553259 43.5625 140.3125 C44.04116913 135.04713958 43.2626012 131.84867002 40.5625 127.3125 C39.52617261 126.08242655 39.52617261 126.08242655 37.3125 125.9375 C33.28941939 126.4861019 32.09741107 128.19260946 29.5625 131.3125 Z " fill="#FEFEFE" transform="translate(265.4375,-0.3125)"/>
<path d="M0 0 C1.8125 0.5 1.8125 0.5 4 2 C6.88980287 8.41268111 7.92229737 14.76423112 8.9375 21.6875 C11.98239837 40.79322616 16.39855338 53.76495172 32.50512695 65.57910156 C38.17223533 69.58647752 44.08352337 73.10997969 50.10595703 76.55175781 C65.31759565 85.27560946 65.31759565 85.27560946 69 92 C69.62831661 96.30845679 69.33887152 99.95029251 68 104.09765625 C63.91763548 117.80615533 66.25889251 135.17913448 72.3671875 147.83203125 C76.02685737 154.19548707 80.86465367 159.09045076 86.08398438 164.15991211 C102.30931811 179.91972661 108.59612519 197.07453447 114.87109375 218.296875 C115.51685484 220.46915902 116.16400537 222.64103046 116.8125 224.8125 C117.13524902 225.89450684 117.45799805 226.97651367 117.79052734 228.09130859 C120.54228131 237.05678636 123.98610409 245.6313039 127.85083008 254.1730957 C130.16617342 259.40274276 131.57124893 263.26370865 131 269 C124.94360126 269.70219116 120.95474085 267.32089224 115.8125 264.5 C114.96751953 264.04512207 114.12253906 263.59024414 113.25195312 263.12158203 C106.75946836 259.56267394 100.84318446 255.54469903 95 251 C93.20954458 249.74826568 91.41784316 248.498312 89.625 247.25 C82.91764676 242.36239743 76.9619738 236.75339162 71 231 C70.15937012 230.19224121 70.15937012 230.19224121 69.30175781 229.36816406 C61.99502456 222.31324241 55.18219815 215.08109322 49 207 C48.57509277 206.44618652 48.15018555 205.89237305 47.71240234 205.32177734 C40.96244723 196.47323956 34.8394713 187.32794795 29.09179688 177.80029297 C28.13500465 176.22261276 27.15526649 174.6588953 26.171875 173.09765625 C3.65432899 136.42772734 -6.4254089 92.79621227 -6.26074219 50.17919922 C-6.24999411 46.87318688 -6.26071272 43.56771501 -6.2734375 40.26171875 C-6.29688045 10.4874944 -6.29688045 10.4874944 -1 1 C-0.67 0.67 -0.34 0.34 0 0 Z " fill="#FEFEFE" transform="translate(6,214)"/>
<path d="M0 0 C-1.00060584 2.23212073 -1.77679757 3.80255169 -3.625 5.4375 C-5.25744398 6.98459369 -5.25744398 6.98459369 -5.25 9.625 C-5.25676839 11.95296435 -5.25676839 11.95296435 -4 13 C-2.35013149 13.06289326 -0.69763149 13.05935407 0.953125 13.02734375 C2.47099609 13.00897461 2.47099609 13.00897461 4.01953125 12.99023438 C6.15762404 12.95533201 8.2956542 12.91633031 10.43359375 12.87304688 C11.45066406 12.86208984 12.46773437 12.85113281 13.515625 12.83984375 C14.91216309 12.81458618 14.91216309 12.81458618 16.33691406 12.78881836 C19.2321341 13.01840814 21.37275569 13.79431013 24 15 C24.8125 18.125 24.8125 18.125 25 22 C22.29748071 26.13326479 19.442583 28.8387434 15 31 C14.34 31 13.68 31 13 31 C13 31.66 13 32.32 13 33 C10.69 33.66 8.38 34.32 6 35 C6 35.66 6 36.32 6 37 C4.19921875 38.19140625 4.19921875 38.19140625 1.6875 39.5625 C-8.10343694 45.27619125 -17.81598208 52.63196416 -23 63 C-23.61885492 67.99504325 -23.75635505 71.7800725 -21.0625 76.125 C-16.9363958 78.65118624 -13.71902134 79.03714755 -9 78 C-4.42861732 74.73472666 -1.61444787 69.66495963 1.44921875 65.01171875 C1.96097656 64.34785156 2.47273438 63.68398437 3 63 C3.66 63 4.32 63 5 63 C5.226875 62.29875 5.45375 61.5975 5.6875 60.875 C7.34633691 57.24135724 9.13841785 54.79799144 12 52 C15.30030639 51.07359821 17.60251408 50.62169068 20.93359375 51.5234375 C24.19488589 53.8538126 25.64367072 57.13408725 27.5 60.625 C27.87769531 61.31207031 28.25539063 61.99914062 28.64453125 62.70703125 C30.89791817 66.83436881 33.02500268 71.01387468 35.07568359 75.24536133 C36.10111774 77.27809119 36.10111774 77.27809119 38.125 80.0625 C41.78566347 85.79753943 42.53521762 91.36330155 42 98 C40.09756373 102.75609067 37.58974425 104.00055969 33 106 C30.27546026 106.75681659 27.51997766 107.31141549 24.75 107.875 C12.24881869 110.67084253 3.1803796 116.06656099 -6 125 C-6.66767811 126.33282713 -7.33440709 127.66613033 -8 129 C-8.76957031 129.61359375 -9.53914063 130.2271875 -10.33203125 130.859375 C-13.90681678 133.72757774 -16.24648577 137.20161614 -18.86914062 140.9296875 C-19.86970945 142.31851124 -20.93044368 143.66357992 -22 145 C-22.66 145 -23.32 145 -24 145 C-24.2784375 145.57234375 -24.556875 146.1446875 -24.84375 146.734375 C-25.98273792 148.96617566 -27.19936383 151.10870874 -28.5 153.25 C-28.9228125 153.95640625 -29.345625 154.6628125 -29.78125 155.390625 C-30.38453125 156.18726563 -30.38453125 156.18726563 -31 157 C-31.66 157 -32.32 157 -33 157 C-33.226875 157.825 -33.45375 158.65 -33.6875 159.5 C-34.76300467 162.36801246 -35.68517965 164.11356036 -37.375 166.5625 C-40.87406839 171.88897503 -42.33687527 177.90497304 -44 184 C-44.33 184 -44.66 184 -45 184 C-44.02153961 167.04001987 -32.40673405 152.65793656 -21.8125 140.171875 C-19.87649476 137.93091478 -19.87649476 137.93091478 -18 135 C-17.34 135 -16.68 135 -16 135 C-15.7834375 134.47019531 -15.566875 133.94039062 -15.34375 133.39453125 C-8.41019433 121.03909629 4.63464959 111.12753468 18 107 C21.47391538 106.06842279 24.96214513 105.19994013 28.46728516 104.39379883 C34.72752662 103.16847264 34.72752662 103.16847264 39.25390625 99.1328125 C40.84163239 94.59407705 39.7879309 90.04454483 38.09375 85.6484375 C35.1766232 79.59737042 31.56453144 73.94708098 27.98828125 68.26953125 C25.57515313 64.30138147 23.46916642 60.21371518 21.421875 56.046875 C20.15264736 53.92915442 20.15264736 53.92915442 18.203125 52.890625 C14.54282687 53.07234193 12.41371113 55.47529567 10 58 C8.19780431 60.20609014 6.59160457 62.51400322 5 64.875 C4.13507083 66.11876102 3.2679008 67.36096687 2.3984375 68.6015625 C1.9869043 69.18969727 1.57537109 69.77783203 1.15136719 70.38378906 C-4.9320574 78.92328668 -4.9320574 78.92328668 -10 81 C-14.84078166 81.46846274 -17.03389668 81.50094246 -21.375 79.25 C-24.34996729 76.70002804 -25.67076374 74.81253226 -26.37109375 70.95703125 C-26.64077051 62.24805818 -22.94073903 56.89575028 -17.16870117 50.6015625 C-10.55898063 43.73364124 -3.07464575 38.88086263 5.11962891 34.10205078 C7.862494 32.49450819 10.55881069 30.81732332 13.25 29.125 C14.49523437 28.35542969 14.49523437 28.35542969 15.765625 27.5703125 C18.14739984 25.8964078 20.08934741 24.19725047 22 22 C22.33498301 19.33165034 22.33498301 19.33165034 22 17 C19.39910115 15.69955057 17.60126292 15.9509655 14.6953125 16.04296875 C13.63699219 16.06423828 12.57867187 16.08550781 11.48828125 16.10742188 C9.25359129 16.16062878 7.0191502 16.22565505 4.78515625 16.30273438 C3.19380859 16.32883789 3.19380859 16.32883789 1.5703125 16.35546875 C0.11262451 16.39643677 0.11262451 16.39643677 -1.37451172 16.43823242 C-4.77797016 15.87014539 -5.94340234 14.7234302 -8 12 C-8.08213586 7.48252768 -7.46058067 5.55505876 -4.5625 2.0625 C-2 0 -2 0 0 0 Z " fill="#E0E0E0" transform="translate(124,39)"/>
<path d="M0 0 C2 3 2 3 1.8125 5.5 C0.91823039 8.25159881 0.19298146 9.17366547 -2 11 C-3.9453125 11.73608398 -3.9453125 11.73608398 -6.125 12.24609375 C-6.91390625 12.44396484 -7.7028125 12.64183594 -8.515625 12.84570312 C-10.17099859 13.24002561 -11.82725594 13.63065646 -13.484375 14.01757812 C-18.18903113 15.15842795 -18.18903113 15.15842795 -22.03515625 17.94921875 C-23.54272875 21.15357325 -23.42159795 23.50675981 -23 27 C-20.29082632 32.03132254 -17.67035279 35.08965246 -12.25 36.9375 C-6.99897325 37.03848128 -2.95279001 34.75884853 0.92480469 31.26635742 C2.83726487 29.26159413 4.67960791 27.2136604 6.5 25.125 C13.73747039 16.91237571 20.75722499 9.67995489 32 8 C37.57380724 7.83109675 42.35553364 8.2952287 47.5 10.5 C50.90578933 13.90578933 52.34688422 17.53340831 54 22 C54.4125 23.010625 54.825 24.02125 55.25 25.0625 C55.62125 26.0215625 55.62125 26.0215625 56 27 C57.32 27 58.64 27 60 27 C61.20272819 24.59454362 61.10071472 23.05003047 61.0625 20.375 C61.05347656 19.55773437 61.04445313 18.74046875 61.03515625 17.8984375 C61.02355469 17.27195313 61.01195312 16.64546875 61 16 C60.278125 15.7525 59.55625 15.505 58.8125 15.25 C55.13602647 13.61601177 51.83898291 11.67796581 50 8 C49.960008 6.00039988 49.95653201 3.99952758 50 2 C50.99 2 51.98 2 53 2 C52.7525 2.556875 52.505 3.11375 52.25 3.6875 C51.74172781 6.15976976 51.74172781 6.15976976 53.5625 8.5 C56.15955628 11.16364746 58.89279502 12.97356197 62 15 C64.17240606 18.25860909 64.23564158 18.82050803 63.8125 22.5 C63.73644531 23.2734375 63.66039062 24.046875 63.58203125 24.84375 C62.89411188 27.39228352 62.07023468 28.39317552 60 30 C57.5 30.4375 57.5 30.4375 55 30 C51.86721917 27.21530593 51.39968385 23.82228737 50.5390625 19.8984375 C49.85479038 17.48860961 48.60459558 15.89634023 47 14 C47 13.34 47 12.68 47 12 C35.61060672 10.01923595 26.99012267 10.53367359 17.296875 17.234375 C12.01593715 21.29387145 7.66722338 26.18592943 3.375 31.25 C-0.62234486 35.82353871 -4.10018497 39.13075087 -10.375 39.625 C-15.75039235 39.39761454 -19.26104071 36.68516131 -23 33 C-26.11465664 28.32801504 -25.84128974 23.46100355 -25 18 C-22.36204514 13.74288664 -17.68504337 12.12788081 -13 11 C-9.00920832 10.26835486 -5.0110728 9.61009845 -1 9 C-0.67 6.03 -0.34 3.06 0 0 Z " fill="#DEDEDE" transform="translate(304,172)"/>
<path d="M0 0 C2.64373653 1.32186826 2.71891242 2.38447774 3.75 5.125 C4.09546875 6.01960938 4.4409375 6.91421875 4.796875 7.8359375 C5.19390625 8.88007813 5.5909375 9.92421875 6 11 C6.98905151 13.58769847 7.99183913 16.16969447 9 18.75 C9.23686523 19.37535645 9.47373047 20.00071289 9.71777344 20.64501953 C11.35738053 24.83525013 13.46772602 28.29784506 16 32 C17.05367585 34.02491251 18.07549541 36.06676643 19.0625 38.125 C20.45235818 41.0226884 21.71798878 43.63489035 23.68359375 46.1796875 C25 48 25 48 25 51 C25.66 51 26.32 51 27 51 C31 57.75 31 57.75 31 60 C31.66 60 32.32 60 33 60 C34.65625 62.265625 34.65625 62.265625 36.5 65.25 C37.1084375 66.22453125 37.716875 67.1990625 38.34375 68.203125 C39.66713848 70.43790366 40.88436415 72.65716472 42 75 C42.66 75 43.32 75 44 75 C45.38608773 76.75117333 46.7057212 78.55492044 48 80.375 C57.0911254 92.64741217 68.37784967 104.35319979 81.2265625 112.6875 C81.81179687 113.120625 82.39703125 113.55375 83 114 C83 114.66 83 115.32 83 116 C83.73089844 116.268125 84.46179688 116.53625 85.21484375 116.8125 C87.9393574 117.97414397 90.13671098 119.3124946 92.5625 121 C95.30415796 122.90062943 97.98063735 124.57590151 101 126 C101 126.66 101 127.32 101 128 C96.55934235 127.08118051 93.29536376 124.74296615 89.625 122.1875 C88.91529053 121.6939502 88.20558105 121.20040039 87.47436523 120.69189453 C70.04774408 108.37451694 53.84305297 93.05232173 41 76 C40.58089355 75.4519873 40.16178711 74.90397461 39.72998047 74.33935547 C32.97317483 65.48485666 26.84411676 56.33564852 21.09179688 46.80029297 C20.13500465 45.22261276 19.15526649 43.6588953 18.171875 42.09765625 C0 12.5046729 0 12.5046729 0 0 Z " fill="#E0E0E0" transform="translate(14,345)"/>
<path d="M0 0 C0.66 0 1.32 0 2 0 C2.41573079 10.02373134 0.89486389 19.70366014 -1.125 29.5 C-4.11802183 45.67657037 -1.83813084 65.56157116 7.5859375 79.4375 C10.13361003 82.25260777 12.3171981 83.03084161 16 84 C25.17877983 84 33.28853213 77.44515552 39.625 71.4453125 C46.016715 64.8643691 51.09402788 57.51130914 56.1015625 49.8515625 C58.58710627 46.11813255 61.25009447 42.541545 64 39 C64.33 39.66 64.66 40.32 65 41 C56.52140822 54.16675429 47.67644798 67.44488105 36 78 C35.21625 78.763125 34.4325 79.52625 33.625 80.3125 C26.90631015 84.63165776 19.93209541 86.59864871 12 86 C12 85.34 12 84.68 12 84 C11.23945313 83.75378906 10.47890625 83.50757813 9.6953125 83.25390625 C4.67010115 80.91609054 2.29366157 75.83961398 0.05859375 70.93359375 C-5.81140936 54.73730244 -5.92962152 39.5454814 -2.50268555 22.90698242 C-0.95220498 15.25725122 -0.2396056 7.79916224 0 0 Z " fill="#E0E0E0" transform="translate(349,379)"/>
<path d="M0 0 C21.51566295 17.92971913 31.07590483 36.93305308 38.87109375 63.296875 C39.51685484 65.46915902 40.16400537 67.64103046 40.8125 69.8125 C41.13524902 70.89450684 41.45799805 71.97651367 41.79052734 73.09130859 C44.54228131 82.05678636 47.98610409 90.6313039 51.85083008 99.1730957 C54.16617342 104.40274276 55.57124893 108.26370865 55 114 C49.29842321 114.56838149 45.90810804 112.74379841 41.125 110 C40.43664062 109.6184375 39.74828125 109.236875 39.0390625 108.84375 C37.35307255 107.90708892 35.67563186 106.95506752 34 106 C34.33 105.34 34.66 104.68 35 104 C36.93873142 104.95583968 38.8759433 105.91476192 40.8125 106.875 C41.89144531 107.40867187 42.97039062 107.94234375 44.08203125 108.4921875 C47 110 47 110 50 112 C50.99 112 51.98 112 53 112 C51.84289711 105.17309296 49.54006819 99.59596068 46.57421875 93.35546875 C42.42038248 84.50151006 39.55356182 75.61645789 37.0625 66.1875 C30.5866598 41.71837175 20.79488405 22.29453973 2.4375 4.5 C0 2 0 2 0 0 Z " fill="#E0E0E0" transform="translate(82,369)"/>
<path d="M0 0 C0.33 0 0.66 0 1 0 C1.07476562 0.94359375 1.14953125 1.8871875 1.2265625 2.859375 C2.50731751 15.365571 6.27864281 26.41216074 16 35 C19.19684032 37.33125067 22.41840286 39.31833597 26 41 C26.57081299 41.27360352 27.14162598 41.54720703 27.72973633 41.82910156 C35.47921442 44.99853847 43.729902 44.29187465 51.9375 44.125 C81.28033824 43.66548542 81.28033824 43.66548542 90.78515625 51.46484375 C95.39561789 56.2875517 98.13567191 62.65571933 100 69 C99.505 70.485 99.505 70.485 99 72 C98.62488281 71.14277344 98.24976563 70.28554688 97.86328125 69.40234375 C92.56376857 56.55523869 92.56376857 56.55523869 81.71875 48.78125 C73.78616896 46.50177269 65.98130029 45.60439602 57.80859375 46.69140625 C42.80476973 48.33994881 28.56437373 47.22239938 16.18359375 37.78125 C15.10271484 36.89953125 15.10271484 36.89953125 14 36 C12.73929687 35.08154297 12.73929687 35.08154297 11.453125 34.14453125 C5.67667299 29.09473483 1.19153226 20.54637099 0 13 C-0.1381636 8.66063942 -0.11746079 4.3395235 0 0 Z " fill="#DEDEDE" transform="translate(249,284)"/>
<path d="M0 0 C5.51331966 1.20514905 10.92821046 2.68788235 16.33203125 4.30859375 C17.34172974 4.60358765 17.34172974 4.60358765 18.37182617 4.90454102 C23.72889829 6.57196529 28.33849446 8.56063345 31.72607422 13.17114258 C33.32879171 16.43631155 33.46934509 18.65414372 33.48046875 22.28125 C33.48675293 23.51609131 33.49303711 24.75093262 33.49951172 26.02319336 C33.48549316 27.33425049 33.47147461 28.64530762 33.45703125 29.99609375 C33.45237854 30.66931671 33.44772583 31.34253967 33.44293213 32.03616333 C33.29574351 50.19670454 30.19158873 66.89427014 25.484375 84.41015625 C25.26257568 85.23596191 25.04077637 86.06176758 24.81225586 86.91259766 C24.08203125 88.93359375 24.08203125 88.93359375 22.08203125 90.93359375 C25.69905253 67.31657247 25.69905253 67.31657247 28.08203125 64.93359375 C28.78319812 60.91850007 29.18633885 56.85765293 29.64453125 52.80859375 C29.78093018 51.60420654 29.9173291 50.39981934 30.05786133 49.15893555 C31.25975773 37.73004792 31.40672498 26.41110072 31.08203125 14.93359375 C30.42203125 14.93359375 29.76203125 14.93359375 29.08203125 14.93359375 C26.95703125 13.05859375 26.95703125 13.05859375 25.08203125 10.93359375 C25.08203125 10.27359375 25.08203125 9.61359375 25.08203125 8.93359375 C24.1178125 8.74023438 23.15359375 8.546875 22.16015625 8.34765625 C20.896875 8.08726562 19.63359375 7.826875 18.33203125 7.55859375 C16.45257813 7.17574219 16.45257813 7.17574219 14.53515625 6.78515625 C11.67104605 6.07884853 9.66277278 5.2458352 7.08203125 3.93359375 C4.72638529 3.48548238 4.72638529 3.48548238 2.33203125 3.30859375 C1.5328125 3.23382813 0.73359375 3.1590625 -0.08984375 3.08203125 C-0.693125 3.03304687 -1.29640625 2.9840625 -1.91796875 2.93359375 C-2.73445189 5.21763472 -2.73445189 5.21763472 -2.91796875 7.93359375 C-1.53292527 10.25804606 -1.53292527 10.25804606 0.51953125 12.24609375 C1.17824219 12.94347656 1.83695312 13.64085937 2.515625 14.359375 C3.03253906 14.87886719 3.54945313 15.39835937 4.08203125 15.93359375 C3.75203125 16.59359375 3.42203125 17.25359375 3.08203125 17.93359375 C-4.43861573 11.62162218 -4.43861573 11.62162218 -5.5546875 7.69140625 C-5.60546875 5.55859375 -5.60546875 5.55859375 -4.91796875 1.93359375 C-1.91796875 -0.06640625 -1.91796875 -0.06640625 0 0 Z " fill="#E2E2E2" transform="translate(478.91796875,243.06640625)"/>
<path d="M0 0 C0.66 0 1.32 0 2 0 C0.67350127 3.60835146 -0.99944852 6.90940349 -2.86914062 10.265625 C-7.53245662 18.65447863 -12.12173428 27.09134721 -11 37 C-9.71362903 41.21643819 -8.54670483 43.49143736 -5.3125 46.5 C-1.22509889 48.35089861 1.80495337 48.31461541 6 47 C10.49627958 44.53977155 13.98056741 42.06528284 15.64135742 37.0715332 C16.49235189 33.94205859 17.26162815 30.7961876 18.01757812 27.64257812 C19.22996276 22.90682324 20.45617388 19.56467215 24 16 C26.4375 14.875 26.4375 14.875 29 15 C33.06808461 18.12201842 34.9045087 21.0204941 36 26 C36.07522969 28.33212027 36.09325876 30.6685311 36 33 C35.67 33 35.34 33 35 33 C34.01 28.38 33.02 23.76 32 19 C29.69 18.67 27.38 18.34 25 18 C20.86087791 22.33052657 20.30496375 28.26248986 19.0703125 33.9140625 C17.46620788 40.62597392 15.10597781 44.33773331 9.8125 48.875 C4.38624474 51.0455021 -0.99957895 50.72742584 -6.4375 48.75 C-9.75983314 46.48108956 -11.47647085 44.66577458 -12.6875 40.8125 C-14.02773618 28.75037437 -11.41370036 19.88261242 -5.375 9.4375 C-4.859375 8.52419922 -4.34375 7.61089844 -3.8125 6.66992188 C-2.55189555 4.44051957 -1.28105081 2.2176953 0 0 Z " fill="#DEDEDE" transform="translate(340,63)"/>
<path d="M0 0 C0.8125 2.125 0.8125 2.125 1 5 C-1.99636826 9.44622386 -5.82630853 12.67415929 -9.87890625 16.14453125 C-15.33800698 20.91998769 -20.25681356 25.76135594 -24 32 C-24.495 30.515 -24.495 30.515 -25 29 C-19.58553218 20.57900607 -11.95786393 13.64251227 -3.9375 7.75 C-3.298125 7.1725 -2.65875 6.595 -2 6 C-2 4.68 -2 3.36 -2 2 C-9.95083842 2.3741571 -17.38072718 4.20659532 -24.99267578 6.41748047 C-26.33036541 6.80567403 -27.66991249 7.18752345 -29.01123047 7.56298828 C-39.00311613 10.36768566 -47.84525918 14.10483408 -57 19 C-58.89189564 19.98675341 -60.78732392 20.96678776 -62.6875 21.9375 C-63.45449219 22.33839844 -64.22148437 22.73929688 -65.01171875 23.15234375 C-67 24 -67 24 -70 24 C-70 24.66 -70 25.32 -70 26 C-71.98 26.66 -73.96 27.32 -76 28 C-76 27.34 -76 26.68 -76 26 C-57.13009005 14.93400228 -37.76075914 6.52543971 -16.375 1.625 C-15.65328613 1.45718018 -14.93157227 1.28936035 -14.18798828 1.11645508 C-9.37202861 0.07998896 -4.92500713 -0.14387661 0 0 Z " fill="#DFDFDF" transform="translate(212,4)"/>
<path d="M0 0 C2.62245869 3.35007729 4.56775157 6.82090949 6.5234375 10.5859375 C10.06306536 16.37294813 14.30097026 20.34358494 19.75 24.25 C20.39469238 24.71889648 21.03938477 25.18779297 21.70361328 25.67089844 C27.28153251 29.64959148 33.1155041 33.09419631 39.05444336 36.49975586 C54.34293416 45.32187977 54.34293416 45.32187977 58 52 C58.83465619 57.72335673 57.66520996 62.51460249 56 68 C55.56299339 70.99181452 55.25953767 73.98799699 55 77 C54.67 77 54.34 77 54 77 C53.65383645 64.55734363 53.65383645 64.55734363 55.1875 59.0625 C56.02117499 55.81116756 56.02414928 55.07528894 54.9375 51.6875 C49.96630056 44.7919653 41.67022961 41.19848159 34.45507812 37.04101562 C21.16661414 29.30539432 21.16661414 29.30539432 16 25 C16 24.34 16 23.68 16 23 C15.4225 22.7525 14.845 22.505 14.25 22.25 C11.67060021 20.81700012 9.93878408 19.21575324 8 17 C8 16.34 8 15.68 8 15 C7.01 14.67 6.02 14.34 5 14 C3.61328125 12.109375 3.61328125 12.109375 2.3125 9.75 C1.87550781 8.98171875 1.43851563 8.2134375 0.98828125 7.421875 C-0.09669092 4.76304991 -0.18655326 2.84367675 0 0 Z " fill="#E1E1E1" transform="translate(17,254)"/>
<path d="M0 0 C4.6976378 0.68947717 8.73547334 2.45474776 13.0625 4.3125 C18.19876456 6.48727496 23.28662068 8.48501748 28.625 10.125 C33.59014326 11.72775916 37.09134301 13.51619703 41 17 C43.84633742 22.74075487 44.12574571 29.18781568 42.3125 35.328125 C40.94394281 38.49861583 39.29895861 41.46758494 37.609375 44.4765625 C34.24944318 50.47138823 31.49879417 56.41301379 29.18017578 62.87353516 C27.72713624 66.76240109 26.15893662 69.29524525 23 72 C26.62869458 60.52147633 31.3512252 49.09175438 37.8125 38.92578125 C41.60232698 32.77977894 41.86241593 26.66526769 40.25 19.8125 C36.56961075 15.21201344 31.42008266 13.92013678 26 12 C23.56811183 11.12194683 21.13785475 10.23963985 18.70898438 9.35327148 C17.06362488 8.75569756 15.41527619 8.16627272 13.76367188 7.58618164 C8.83081612 5.81953336 4.4751216 3.7304814 0 1 C0 0.67 0 0.34 0 0 Z " fill="#E0E0E0" transform="translate(169,338)"/>
<path d="M0 0 C3.58133608 3.35274016 6.28234505 7.02997833 9 11.09765625 C10.69486123 13.64751136 10.69486123 13.64751136 12.9765625 15.77734375 C14.75390625 17.578125 14.75390625 17.578125 14.75390625 19.578125 C15.55828125 19.84625 16.36265625 20.114375 17.19140625 20.390625 C18.03703125 20.7825 18.88265625 21.174375 19.75390625 21.578125 C20.08390625 22.568125 20.41390625 23.558125 20.75390625 24.578125 C14.25544782 23.00274114 10.75686268 17.17779553 6.87890625 12.14453125 C-4.83581151 -2.99485198 -21.18416112 -14.52043384 -40.24609375 -18.421875 C-42.19782645 -18.50247497 -44.15209793 -18.52949743 -46.10546875 -18.51953125 C-47.22050781 -18.51630859 -48.33554688 -18.51308594 -49.484375 -18.50976562 C-51.22267578 -18.49719727 -51.22267578 -18.49719727 -52.99609375 -18.484375 C-54.17042969 -18.47986328 -55.34476563 -18.47535156 -56.5546875 -18.47070312 C-59.45187447 -18.45892594 -62.34895829 -18.44247826 -65.24609375 -18.421875 C-65.24609375 -18.751875 -65.24609375 -19.081875 -65.24609375 -19.421875 C-39.08058888 -22.9441545 -20.35128763 -16.72405133 0 0 Z " fill="#E3E3E3" transform="translate(148.24609375,313.421875)"/>
<path d="M0 0 C1.21048978 3.63146933 0.73960366 4.19756077 -0.8515625 7.55078125 C-1.28404297 8.46601563 -1.71652344 9.38125 -2.16210938 10.32421875 C-2.64486328 11.31035156 -3.12761719 12.29648437 -3.625 13.3125 C-4.3684668 14.84390625 -4.3684668 14.84390625 -5.12695312 16.40625 C-13.27876549 32.91290865 -22.7014485 48.46358704 -34 63 C-34.33 62.34 -34.66 61.68 -35 61 C-33.85546875 58.6171875 -33.85546875 58.6171875 -32.1875 55.875 C-31.37345703 54.50988281 -31.37345703 54.50988281 -30.54296875 53.1171875 C-30.03378906 52.41851562 -29.52460938 51.71984375 -29 51 C-28.34 51 -27.68 51 -27 51 C-26.566875 49.88625 -26.566875 49.88625 -26.125 48.75 C-25.17697356 46.43260203 -24.15154089 44.22082885 -23 42 C-22.34 42 -21.68 42 -21 42 C-20.63648438 40.73349609 -20.63648438 40.73349609 -20.265625 39.44140625 C-18.85896758 35.61651371 -16.91655206 32.35990718 -14.75 28.9375 C-11.13021342 23.07415821 -8.07947345 17.20316432 -5.28515625 10.8984375 C-3.64476994 7.19884285 -1.83773337 3.60478468 0 0 Z " fill="#E1E1E1" transform="translate(494,351)"/>
<path d="M0 0 C0.33 0 0.66 0 1 0 C1.69336363 16.38392568 -2.80787193 27.80312619 -13.8984375 40.0078125 C-25.49411765 51 -25.49411765 51 -30 51 C-30 51.66 -30 52.32 -30 53 C-31.96875 54.5078125 -31.96875 54.5078125 -34.5 56.125 C-35.3353125 56.66382813 -36.170625 57.20265625 -37.03125 57.7578125 C-37.6809375 58.16773438 -38.330625 58.57765625 -39 59 C-37.64196774 55.86464882 -36.22493076 54.08660897 -33.55078125 51.9765625 C-32.86693359 51.43 -32.18308594 50.8834375 -31.47851562 50.3203125 C-30.76373047 49.76085938 -30.04894531 49.20140625 -29.3125 48.625 C-11.50428668 34.49726079 -3.42546017 22.60284705 0 0 Z " fill="#DEDEDE" transform="translate(247,7)"/>
<path d="M0 0 C0.33 0.99 0.66 1.98 1 3 C0.04362887 4.60533726 -0.91360118 6.21016864 -1.875 7.8125 C-7.59127566 18.92748044 -7.57129629 33.18682103 -4.5 45.0625 C-2.38031143 51.06456554 0.48478141 54.79482061 6 58 C8.95159015 59.26758213 11.88009934 60.24169081 15 61 C15 61.66 15 62.32 15 63 C8.19988435 62.31998844 3.00220775 60.00220775 -1.8125 55.1875 C-9.2816149 44.30393258 -9.06453017 30.86374787 -7.69140625 18.140625 C-6.39062393 11.64822476 -3.66195437 5.49293156 0 0 Z " fill="#DEDEDE" transform="translate(166,441)"/>
<path d="M0 0 C-3.56519081 1.95771183 -7.32771958 3.14918029 -11.1875 4.375 C-15.45003405 5.73585021 -19.37598093 7.16391127 -23.390625 9.1328125 C-28.1767603 11.29712916 -32.35802808 11.61667145 -37.5625 11.5 C-38.4272998 11.49009033 -39.29209961 11.48018066 -40.18310547 11.4699707 C-48.51967895 11.2332494 -56.07016545 9.45279805 -64 7 C-65.05960938 6.69191406 -66.11921875 6.38382812 -67.2109375 6.06640625 C-69.4825361 5.40147053 -71.74404877 4.71583068 -74 4 C-70.41496021 2.74765158 -68.01199083 3.26892906 -64.37890625 4.21484375 C-63.27740234 4.48876953 -62.17589844 4.76269531 -61.04101562 5.04492188 C-58.75592506 5.63127021 -56.47202311 6.22227422 -54.18945312 6.81835938 C-41.82986732 9.8742616 -31.7293858 10.12617601 -20 5 C-18.21059719 4.26529527 -16.41899203 3.53592662 -14.625 2.8125 C-13.85414063 2.48894531 -13.08328125 2.16539062 -12.2890625 1.83203125 C-8.16731079 0.33385187 -4.36928681 -0.12483677 0 0 Z " fill="#E2E2E2" transform="translate(255,501)"/>
<path d="M0 0 C0.66 0 1.32 0 2 0 C2.98219627 1.76915475 3.96065359 3.54038569 4.9375 5.3125 C5.48277344 6.29863281 6.02804687 7.28476562 6.58984375 8.30078125 C8 11 8 11 9 14 C10.84971696 15.05021103 10.84971696 15.05021103 13 16 C13.556875 16.495 14.11375 16.99 14.6875 17.5 C17.69254544 19.44921866 20.58260183 19.91884879 24.07421875 20.5703125 C26 21 26 21 27 22 C27.83538654 29.02546388 26.77344125 34.08255803 23 40 C22.60296875 40.65355469 22.2059375 41.30710937 21.796875 41.98046875 C19.34847389 45.73829957 17.52668724 47.83599471 13 49 C13.37511719 48.53851563 13.75023437 48.07703125 14.13671875 47.6015625 C19.71587064 40.49060316 24.40058215 33.19107371 25 24 C24.41992188 23.82984375 23.83984375 23.6596875 23.2421875 23.484375 C12.47224101 20.14320348 6.55751206 14.31171495 1.0625 4.5625 C0 2 0 2 0 0 Z " fill="#E1E1E2" transform="translate(440,290)"/>
<path d="M0 0 C0 0.66 0 1.32 0 2 C0.66902344 2.08636719 1.33804688 2.17273438 2.02734375 2.26171875 C5.85095227 3.21134031 9.10608137 4.98010199 12.5625 6.8125 C19.1949607 10.24202723 25.80737256 12.92939513 33 15 C33 15.33 33 15.66 33 16 C21.53023274 15.60449078 11.51215699 10.14993962 1.79296875 4.39453125 C-5.88267905 0.56207494 -12.52334624 -0.41925156 -21.0625 -0.1875 C-22.02349609 -0.17396484 -22.98449219 -0.16042969 -23.97460938 -0.14648438 C-26.31701752 -0.11152306 -28.65819156 -0.06246104 -31 0 C-22.02205982 -5.98529345 -9.57260712 -3.16574409 0 0 Z " fill="#DFE0E0" transform="translate(345,217)"/>
<path d="M0 0 C0.66 0.33 1.32 0.66 2 1 C-0.18532752 3.35619114 -2.3736697 5.70956287 -4.5625 8.0625 C-5.17158203 8.71927734 -5.78066406 9.37605469 -6.40820312 10.05273438 C-13.83774028 18.03260762 -21.44515379 25.22192954 -30 32 C-30.55623047 32.44375977 -31.11246094 32.88751953 -31.68554688 33.34472656 C-33.409451 34.716675 -35.14080354 36.07859256 -36.875 37.4375 C-37.41012207 37.86264893 -37.94524414 38.28779785 -38.49658203 38.72583008 C-41.5317853 41.07856442 -44.35783588 42.77026562 -48 44 C-46.84237825 40.52713476 -46.31666236 40.32137755 -43.3125 38.5 C-38.90917298 35.68243705 -34.7923483 32.6035685 -30.6875 29.375 C-29.78994995 28.67407227 -29.78994995 28.67407227 -28.87426758 27.95898438 C-25.71615274 25.46337697 -22.81270692 22.8885552 -20 20 C-19.175 19.360625 -18.35 18.72125 -17.5 18.0625 C-14.8967558 15.91482353 -13.07185338 13.65456215 -11 11 C-9.3545622 9.31237149 -7.68711423 7.6459651 -6 6 C-5.0925 5.0925 -4.185 4.185 -3.25 3.25 C-2.16666667 2.16666667 -1.08333333 1.08333333 0 0 Z " fill="#E0E0E0" transform="translate(447,427)"/>
<path d="M0 0 C1.16711813 3.5013544 0.75554384 4.30986034 -0.4375 7.6875 C-3.20588199 16.54375906 -2.26853713 22.7123857 2 31 C4.54547633 35.0165633 7.22458839 37.92553239 12 39 C14.62822118 39.40802691 14.62822118 39.40802691 17 38 C18.20510005 35.80246461 19.10890765 33.56854489 20.01953125 31.234375 C21.19993625 28.54436838 22.73981734 26.85657861 25 25 C23.56835889 28.65938172 22.01065704 32.23988068 20.375 35.8125 C19.92898437 36.78832031 19.48296875 37.76414063 19.0234375 38.76953125 C18.68570313 39.50558594 18.34796875 40.24164063 18 41 C13.73799318 41.62154266 10.36638492 41.85483195 6.62109375 39.51171875 C4.591987 37.7584834 2.71347699 36.06364259 1 34 C1 33.34 1 32.68 1 32 C0.34 32 -0.32 32 -1 32 C-4.64532769 23.19045809 -5.90396724 13.33949894 -2.5625 4.1875 C-1 1 -1 1 0 0 Z " fill="#DEDDDD" transform="translate(183,41)"/>
<path d="M0 0 C-2.74790596 1.8319373 -4.21872652 2.41275673 -7.3125 3.1875 C-25.40971994 8.4900382 -39.38062557 20.47578197 -51 35 C-51.33 34.34 -51.66 33.68 -52 33 C-48.95979273 28.39362534 -45.9751318 24.88839355 -41.69921875 21.41015625 C-39.77277658 19.85570001 -39.77277658 19.85570001 -37.3125 17.3125 C-35.29585217 15.29585217 -33.38252148 13.56096235 -31 12 C-30.34 12 -29.68 12 -29 12 C-29 11.34 -29 10.68 -29 10 C-9.44950178 -0.28232255 -9.44950178 -0.28232255 0 0 Z " fill="#DCDCDC" transform="translate(314,217)"/>
<path d="M0 0 C0.99 0.33 1.98 0.66 3 1 C2.21625 1.4125 1.4325 1.825 0.625 2.25 C-2.14078428 4.09385619 -3.09845711 4.8445999 -4 8 C-4.08223366 11.08995097 -4.08223366 11.08995097 -3 14 C0.01154246 16.72010287 3.05532246 17.25344161 6.9375 17.9375 C11.43266914 18.75480348 14.49138853 19.92996496 18 23 C20.50893939 26.81795125 20.16187886 30.47497275 19.54296875 34.84375 C18.746536 38.00656208 17.38792254 39.81675654 15 42 C12.75 42.8125 12.75 42.8125 11 43 C12.26953125 41.53515625 13.5390625 40.0703125 14.80859375 38.60546875 C17.17305926 35.41925457 17.47974788 31.89291124 17.38671875 28 C16.84155896 25.18058777 15.41488192 23.60263594 13.11328125 21.94921875 C9.50663958 20.32922998 5.68152652 20.04194099 1.79296875 19.49609375 C-1.96450249 18.82868278 -3.78284764 18.16736051 -6 15 C-6.62652128 11.55125898 -6.6367565 8.44766357 -6 5 C-4.11484777 2.42362529 -2.80665143 1.40332572 0 0 Z " fill="#D8D8D8" transform="translate(408,190)"/>
<path d="M0 0 C2.91517292 1.07401108 4.77810176 1.77810176 7 4 C7.94582325 10.60847935 6.6714973 15.98913108 4 22 C3.34 22 2.68 22 2 22 C1.773125 22.7425 1.54625 23.485 1.3125 24.25 C-0.27537399 27.57697408 -2.06009412 28.81216307 -5 31 C-6.2375 32.2684375 -6.2375 32.2684375 -7.5 33.5625 C-10.79518215 36.77530259 -13.32277223 38.67184674 -17.875 39.5625 C-22.37530887 38.7524444 -24.82377464 36.15743113 -28 33 C-27.67 32.34 -27.34 31.68 -27 31 C-26.13375 31.825 -25.2675 32.65 -24.375 33.5 C-22.04160652 35.42258477 -21.0694782 35.98697284 -18 36.5625 C-9.8624095 35.03670178 -3.53487275 27.42342 1.4296875 21.2109375 C4.39626659 16.64197263 5.56605554 11.38637228 5 6 C3.60932814 3.41805408 2.18733195 2.02728328 0 0 Z " fill="#E0E0E0" transform="translate(484,261)"/>
<path d="M0 0 C-3 2 -3 2 -6.625 3.25 C-16.47742593 6.90049156 -23.55388643 14.08615751 -30.8125 21.4375 C-31.73998047 22.35337891 -32.66746094 23.26925781 -33.62304688 24.21289062 C-42.20746413 32.75226218 -42.20746413 32.75226218 -46 44 C-46.33 44 -46.66 44 -47 44 C-47 41.36 -47 38.72 -47 36 C-46.34 36 -45.68 36 -45 36 C-44.71382813 34.97519531 -44.71382813 34.97519531 -44.421875 33.9296875 C-42.44219662 29.85067985 -39.50676787 27.22700411 -36.25 24.125 C-32.62315693 20.62878475 -29.07775104 17.16713461 -25.85546875 13.2890625 C-19.57001369 5.81056402 -10.0552084 -0.73574696 0 0 Z " fill="#DFDFDF" transform="translate(350,128)"/>
<path d="M0 0 C2.71147415 0 4.43863878 0.46485619 6.421875 2.35546875 C12.0194817 9.41266644 17.69712706 19.01525286 19 28 C16.1434454 25.51420765 14.79748289 22.83930957 13.1875 19.4375 C11.17482352 15.32202721 9.10920089 11.27745129 6.8125 7.3125 C6.11060547 6.10013672 6.11060547 6.10013672 5.39453125 4.86328125 C4.05218255 2.70070658 4.05218255 2.70070658 1 2 C0.87931529 8.39628979 1.34513908 14.63849395 2 21 C-0.97323444 16.54014834 -1.138064 13.19204757 -1.125 7.875 C-1.12886719 6.29332031 -1.12886719 6.29332031 -1.1328125 4.6796875 C-1 2 -1 2 0 0 Z " fill="#DEDEDE" transform="translate(431,249)"/>
<path d="M0 0 C0 4.04615381 -2.01227882 6.11088913 -4.375 9.1875 C-4.7875 9.74630859 -5.2 10.30511719 -5.625 10.88085938 C-6.69639211 12.29613379 -7.84342325 13.65344404 -9 15 C-9.66 15 -10.32 15 -11 15 C-11.2784375 15.73347656 -11.556875 16.46695312 -11.84375 17.22265625 C-12.90505029 19.77192822 -14.13783303 22.04124896 -15.5 24.4375 C-18.69340454 30.66416785 -19.33459255 37.1075706 -20 44 C-20.33 44 -20.66 44 -21 44 C-22.3306606 31.28479873 -18.04833394 22.08674684 -10.5 12.125 C-9.35046155 10.73564854 -8.18358089 9.36046771 -7 8 C-6.34128906 7.23300781 -5.68257813 6.46601563 -5.00390625 5.67578125 C-3.35079524 3.76988063 -1.68404398 1.87855362 0 0 Z " fill="#E3E3E3" transform="translate(451,341)"/>
<path d="M0 0 C0.66 0 1.32 0 2 0 C2.55044849 8.44021026 0.3729919 16.36277471 -5 23 C-9.66488504 27.5353049 -15.03975307 29.84141534 -21.5 30.1875 C-22.325 30.125625 -23.15 30.06375 -24 30 C-21.69354292 27.69354292 -20.93334617 27.70120667 -17.8125 27.25 C-12.68349685 26.22254218 -9.49259664 23.82522489 -6 20 C-5.67 19.34 -5.34 18.68 -5 18 C-4.34 18 -3.68 18 -3 18 C-1.73638028 12.01314152 -0.67581523 6.08233706 0 0 Z " fill="#E4E5E5" transform="translate(374,98)"/>
<path d="M0 0 C29.79737152 13.54813018 29.79737152 13.54813018 36 21 C36.25 24.75 36.25 24.75 36 28 C35.34 28 34.68 28 34 28 C34.103125 27.278125 34.20625 26.55625 34.3125 25.8125 C33.8720263 21.84823674 31.95708831 20.53464713 29 18 C28.34 17.67 27.68 17.34 27 17 C27 16.34 27 15.68 27 15 C26.17628906 14.75121094 25.35257812 14.50242187 24.50390625 14.24609375 C20.46668339 12.81033668 16.75076146 11.00295518 12.9375 9.0625 C12.24333984 8.71509766 11.54917969 8.36769531 10.83398438 8.00976562 C3.03703125 4.07796875 3.03703125 4.07796875 0 2 C0 1.34 0 0.68 0 0 Z " fill="#DDDEDE" transform="translate(357,20)"/>
<path d="M0 0 C1.8125 0.5 1.8125 0.5 4 2 C6.94261089 8.53658096 8.0806935 15.13753018 9.1875 22.1875 C9.36474609 23.25419922 9.54199219 24.32089844 9.72460938 25.41992188 C10.4668285 30.00219364 11.10363717 34.34790091 11 39 C10.34 38.67 9.68 38.34 9 38 C8.4375 35.82617188 8.4375 35.82617188 8 32.96875 C7.835 31.92976563 7.67 30.89078125 7.5 29.8203125 C7.335 28.72460938 7.17 27.62890625 7 26.5 C5.18426118 14.09737297 5.18426118 14.09737297 2 2 C1.01 2.33 0.02 2.66 -1 3 C-0.67 2.01 -0.34 1.02 0 0 Z " fill="#DEDEDE" transform="translate(6,214)"/>
<path d="M0 0 C6.69605395 0.62954353 12.77615641 2.72793653 19.125 4.875 C20.73181641 5.40287109 20.73181641 5.40287109 22.37109375 5.94140625 C23.92376953 6.46154297 23.92376953 6.46154297 25.5078125 6.9921875 C26.44254395 7.30526855 27.37727539 7.61834961 28.34033203 7.94091797 C31.10234373 9.04075336 33.49651923 10.40450569 36 12 C31.88473653 13.37175449 30.32015306 12.08991664 26.375 10.375 C19.83038667 7.59830009 13.24012519 5.47956619 6.37255859 3.64990234 C4.56595638 3.15411345 2.78019868 2.58353306 1 2 C0.67 1.34 0.34 0.68 0 0 Z " fill="#E0E0E0" transform="translate(320,8)"/>
<path d="M0 0 C5.1575272 1.36522779 8.28641419 4.53745855 11 9 C11.72205452 13.18791622 11.49588965 15.10739863 9.4375 18.8125 C4.3410558 23.38623197 -1.5190171 23.22740291 -8 23 C-5.48788963 20.48788963 -4.09971954 20.5814645 -0.625 20.125 C2.79857405 19.54092569 4.79363248 19.13132478 7.75 17.25 C9.22869123 15.00081783 9.22869123 15.00081783 9.0625 12.0625 C7.75956925 8.30699373 5.9253749 6.64676777 3 4 C1.97186389 2.68824014 0.95915568 1.3630107 0 0 Z " fill="#DCDCDC" transform="translate(428,168)"/>
<path d="M0 0 C-1.00060584 2.23212073 -1.77679757 3.80255169 -3.625 5.4375 C-5.25744398 6.98459369 -5.25744398 6.98459369 -5.25 9.625 C-5.25676839 11.95296435 -5.25676839 11.95296435 -4 13 C-1.64686445 13.07271741 0.70833668 13.08370868 3.0625 13.0625 C4.35285156 13.05347656 5.64320313 13.04445313 6.97265625 13.03515625 C7.97167969 13.02355469 8.97070312 13.01195312 10 13 C10 13.66 10 14.32 10 15 C-1.77710843 17.35542169 -1.77710843 17.35542169 -6.5625 14.4375 C-8 12 -8 12 -8.0625 8.5625 C-6.87417898 4.57812953 -4.72565916 0 0 0 Z " fill="#E3E3E3" transform="translate(124,39)"/>
<path d="M0 0 C1.11826172 0.00322266 2.23652344 0.00644531 3.38867188 0.00976562 C4.55591797 0.01814453 5.72316406 0.02652344 6.92578125 0.03515625 C8.10462891 0.03966797 9.28347656 0.04417969 10.49804688 0.04882812 C13.41150914 0.06062352 16.32486988 0.07708355 19.23828125 0.09765625 C19.23828125 0.75765625 19.23828125 1.41765625 19.23828125 2.09765625 C18.54790771 2.07670898 17.85753418 2.05576172 17.14624023 2.03417969 C13.98957132 1.9505453 10.83313623 1.89884672 7.67578125 1.84765625 C6.58974609 1.81414063 5.50371094 1.780625 4.38476562 1.74609375 C-3.9648408 1.64457878 -8.63922047 2.9381131 -14.69921875 8.84765625 C-15.37984375 9.59015625 -16.06046875 10.33265625 -16.76171875 11.09765625 C-15.32351062 6.06392781 -12.8592636 4.10809736 -8.76171875 1.09765625 C-5.58384334 0.03836445 -3.33582932 -0.01693314 0 0 Z " fill="#E0E0E0" transform="translate(361.76171875,46.90234375)"/>
<path d="M0 0 C0.66 0.33 1.32 0.66 2 1 C-2.61280516 7.18604666 -7.57128849 12.90337354 -12.86328125 18.51953125 C-15.03422765 20.82766691 -15.03422765 20.82766691 -16.10546875 23.26171875 C-17 25 -17 25 -20 26 C-18.57349298 21.48135347 -16.04740194 18.58427865 -12.8125 15.25 C-8.21783808 10.3899561 -3.98215643 5.38202711 0 0 Z " fill="#DFDFDF" transform="translate(187,415)"/>
<path d="M0 0 C0.66 0.33 1.32 0.66 2 1 C1.44570313 2.09699219 0.89140625 3.19398438 0.3203125 4.32421875 C-0.41156558 5.77859187 -1.14333045 7.23302196 -1.875 8.6875 C-2.23980469 9.40873047 -2.60460937 10.12996094 -2.98046875 10.87304688 C-6.7789634 18.27008195 -6.7789634 18.27008195 -8.625 26.3125 C-8.74875 27.529375 -8.8725 28.74625 -9 30 C-9.66 29.67 -10.32 29.34 -11 29 C-10.34896533 18.90896267 -6.60639959 10.88377065 -2 2 C-1.34 2 -0.68 2 0 2 C0 1.34 0 0.68 0 0 Z " fill="#DDDDDD" transform="translate(260,253)"/>
<path d="M0 0 C0.66 0.33 1.32 0.66 2 1 C-7.04651522 7.06308999 -16.14739907 12.34322357 -26 17 C-25 14 -25 14 -23.171875 12.89453125 C-22.37265625 12.53746094 -21.5734375 12.18039062 -20.75 11.8125 C-15.11973161 9.1519541 -9.9541356 5.97594356 -4.6875 2.671875 C-2 1 -2 1 0 0 Z " fill="#DADADA" transform="translate(397,471)"/>
<path d="M0 0 C0.66 0.33 1.32 0.66 2 1 C1.7525 1.556875 1.505 2.11375 1.25 2.6875 C0.74172781 5.15976976 0.74172781 5.15976976 2.5625 7.5 C5.15955628 10.16364746 7.89279502 11.97356197 11 14 C13.29013653 17.4352048 13.17842973 18.985331 13 23 C12.34 23 11.68 23 11 23 C10.67 20.36 10.34 17.72 10 15 C8.9171875 14.62875 8.9171875 14.62875 7.8125 14.25 C4.13602647 12.61601177 0.83898291 10.67796581 -1 7 C-1.125 3.9375 -1.125 3.9375 -1 1 C-0.67 0.67 -0.34 0.34 0 0 Z " fill="#E6E6E6" transform="translate(355,173)"/>
<path d="M0 0 C0.27199219 0.58652344 0.54398438 1.17304688 0.82421875 1.77734375 C4.43776021 8.60825768 9.45678364 12.89637523 16.8125 15.1875 C17.864375 15.455625 18.91625 15.72375 20 16 C20 16.66 20 17.32 20 18 C13.47134711 17.34713471 7.57224571 15.06219622 3.0625 10.1875 C0.77951773 6.65925468 0.24956343 4.15939046 0 0 Z " fill="#E6E6E6" transform="translate(161,486)"/>
<path d="M0 0 C1 2 1 2 0.875 5.1875 C1.01939603 9.59157897 1.83221522 12.17024688 4 16 C8.62516314 20.18467141 13.0046738 20.73354106 19 21 C19 21.33 19 21.66 19 22 C12.95641015 22.32248404 8.19254493 22.54612824 3 19 C-1.47626838 14.36937754 -1.11266754 8.97440281 -1.1328125 2.890625 C-1 1 -1 1 0 0 Z " fill="#E4E4E4" transform="translate(328,91)"/>
<path d="M0 0 C5.11059938 -0.59425574 8.49368517 0.46467812 13.25 2.4375 C19.22748164 4.88944496 24.56497123 5.85814566 31 6 C31 6.33 31 6.66 31 7 C21.87782615 7.59170857 14.56953403 6.0494186 6 3 C4.00092528 2.33056389 2.00119153 1.66308137 0 1 C0 0.67 0 0.34 0 0 Z " fill="#DFDFDF" transform="translate(290,501)"/>
<path d="M0 0 C1.875 0.1875 1.875 0.1875 4 1 C6.49978684 4.809199 6.15732694 8.50710397 5.54296875 12.84375 C4.746536 16.00656208 3.38792254 17.81675654 1 20 C-1.25 20.8125 -1.25 20.8125 -3 21 C-1.73046875 19.53515625 -0.4609375 18.0703125 0.80859375 16.60546875 C3.56603454 12.88970428 3.5357175 8.43752665 3 4 C1.66169042 1.5404226 1.66169042 1.5404226 0 0 Z " fill="#E2E2E2" transform="translate(422,212)"/>
<path d="M0 0 C0.33 0 0.66 0 1 0 C1.26219774 3.05897369 1.25875432 4.60061834 -0.4375 7.21875 C-2.34517727 10.61441554 -2.71923285 13.45830112 -3.1875 17.3125 C-3.42533203 19.19388672 -3.42533203 19.19388672 -3.66796875 21.11328125 C-3.77753906 22.06589844 -3.88710938 23.01851563 -4 24 C-4.33 24 -4.66 24 -5 24 C-5.66534641 14.69993576 -4.57756394 8.15787289 0 0 Z " fill="#DAD9DA" transform="translate(435,361)"/>
<path d="M0 0 C0.99 0.33 1.98 0.66 3 1 C-2.27808571 5.88222928 -7.20007559 8.79643262 -14.5 9.1875 C-15.7375 9.0946875 -15.7375 9.0946875 -17 9 C-14.69610176 6.69610176 -13.87145788 6.67058277 -10.75 6.1875 C-7.28706901 5.50827559 -5.23930593 4.69033604 -2.625 2.3125 C-1.75875 1.549375 -0.8925 0.78625 0 0 Z " fill="#DEDEDE" transform="translate(367,119)"/>
<path d="M0 0 C1.16536152 3.49608456 0.76367929 4.26169799 -0.4375 7.625 C-2.05779904 12.63319702 -2.25352031 16.76058016 -2 22 C-2.66 22.33 -3.32 22.66 -4 23 C-4.55895083 8.26025969 -4.55895083 8.26025969 -1 1 C-0.67 0.67 -0.34 0.34 0 0 Z " fill="#E6E6E6" transform="translate(183,41)"/>
<path d="M0 0 C1.40668945 0.00966797 1.40668945 0.00966797 2.84179688 0.01953125 C4.30649414 0.04466797 4.30649414 0.04466797 5.80078125 0.0703125 C6.78884766 0.07933594 7.77691406 0.08835938 8.79492188 0.09765625 C11.2346189 0.1212282 13.67382822 0.15413228 16.11328125 0.1953125 C16.11328125 0.5253125 16.11328125 0.8553125 16.11328125 1.1953125 C14.8603125 1.24429688 13.60734375 1.29328125 12.31640625 1.34375 C10.66534304 1.41879833 9.01430244 1.49434527 7.36328125 1.5703125 C6.12578125 1.61671875 6.12578125 1.61671875 4.86328125 1.6640625 C4.0640625 1.70273437 3.26484375 1.74140625 2.44140625 1.78125 C1.3416748 1.82838135 1.3416748 1.82838135 0.21972656 1.87646484 C-2.20169664 2.24298996 -3.81275784 2.89622008 -5.88671875 4.1953125 C-6.54671875 5.1853125 -7.20671875 6.1753125 -7.88671875 7.1953125 C-8.07421875 4.8203125 -8.07421875 4.8203125 -7.88671875 2.1953125 C-4.63281887 0.02604591 -3.75275918 -0.04548799 0 0 Z " fill="#E2E2E2" transform="translate(255.88671875,-0.1953125)"/>
<path d="M0 0 C0 0.66 0 1.32 0 2 C-1.86328125 3.4375 -1.86328125 3.4375 -4.3125 5 C-5.11300781 5.515625 -5.91351563 6.03125 -6.73828125 6.5625 C-7.48464844 7.036875 -8.23101562 7.51125 -9 8 C-9.99 8.66 -10.98 9.32 -12 10 C-12.99 9.67 -13.98 9.34 -15 9 C-13.87926138 8.16094435 -12.75325453 7.32892169 -11.625 6.5 C-10.99851562 6.0359375 -10.37203125 5.571875 -9.7265625 5.09375 C-8 4 -8 4 -6 4 C-6 3.34 -6 2.68 -6 2 C-2.25 0 -2.25 0 0 0 Z " fill="#E3E3E3" transform="translate(291,225)"/>
<path d="M0 0 C0.99 0.33 1.98 0.66 3 1 C2.21625 1.4125 1.4325 1.825 0.625 2.25 C-2.18997834 4.12665223 -2.95175818 4.85527455 -4 8 C-4.38749213 10.32495277 -4.72982839 12.65851268 -5 15 C-5.33 15 -5.66 15 -6 15 C-6.62805304 5.85833915 -6.62805304 5.85833915 -4.125 2.4375 C-2 1 -2 1 0 0 Z " fill="#DFDFDF" transform="translate(408,190)"/>
<path d="M0 0 C1.79392184 2.69088276 2.89284306 5.01137087 4.0625 8 C4.40410156 8.86625 4.74570313 9.7325 5.09765625 10.625 C5.77267074 12.40166153 6.39898663 14.19695988 7 16 C6.34 16 5.68 16 5 16 C1.29482729 12.1404451 0.0983782 7.31188759 -0.125 2.0625 C-0.08375 1.381875 -0.0425 0.70125 0 0 Z " fill="#DEDEDE" transform="translate(73,350)"/>
<path d="M0 0 C5.08938811 1.59043379 8.87456643 4.7446951 13 8 C12.67 8.66 12.34 9.32 12 10 C11.30132812 9.50628906 10.60265625 9.01257813 9.8828125 8.50390625 C8.97273438 7.86324219 8.06265625 7.22257813 7.125 6.5625 C6.22007812 5.92441406 5.31515625 5.28632813 4.3828125 4.62890625 C2.12261419 3.00481862 2.12261419 3.00481862 0 2 C0 1.34 0 0.68 0 0 Z " fill="#E3E3E3" transform="translate(362,174)"/>
<path d="M0 0 C7.88264059 0.75794621 7.88264059 0.75794621 11 4 C11 4.99 11 5.98 11 7 C10.34 7 9.68 7 9 7 C8.38125 6.0409375 8.38125 6.0409375 7.75 5.0625 C5.40302106 2.29641768 3.51991219 2.31288108 0 2 C0 1.34 0 0.68 0 0 Z " fill="#D9D9D9" transform="translate(55,219)"/>
<path d="M0 0 C0 3 0 3 -1.53125 4.82421875 C-2.1809375 5.43910156 -2.830625 6.05398437 -3.5 6.6875 C-4.1496875 7.31011719 -4.799375 7.93273437 -5.46875 8.57421875 C-5.9740625 9.04472656 -6.479375 9.51523438 -7 10 C-7.66 9.67 -8.32 9.34 -9 9 C-7.87895467 7.68412059 -6.75303035 6.37239647 -5.625 5.0625 C-4.99851562 4.33160156 -4.37203125 3.60070312 -3.7265625 2.84765625 C-2 1 -2 1 0 0 Z " fill="#E7E7E7" transform="translate(329,137)"/>
<path d="M0 0 C0.66 0.33 1.32 0.66 2 1 C1.6596875 1.86625 1.6596875 1.86625 1.3125 2.75 C0.71884554 5.11481756 0.71884554 5.11481756 2.5 7.0625 C3.2425 8.0215625 3.2425 8.0215625 4 9 C3.67 9.99 3.34 10.98 3 12 C0.33973399 9.17346736 -0.93491949 7.67683725 -1.3125 3.75 C-1 1 -1 1 0 0 Z " fill="#DFDFDF" transform="translate(355,173)"/>
<path d="M0 0 C1.80859375 0.59375 1.80859375 0.59375 3.30859375 2.65625 C3.47359375 3.295625 3.63859375 3.935 3.80859375 4.59375 C2.81859375 4.59375 1.82859375 4.59375 0.80859375 4.59375 C0.39609375 4.078125 -0.01640625 3.5625 -0.44140625 3.03125 C-2.29190989 1.17037825 -2.29190989 1.17037825 -5.87890625 1.90625 C-6.97203125 2.133125 -8.06515625 2.36 -9.19140625 2.59375 C-6.77047386 -1.18895686 -4.00448936 -0.64659645 0 0 Z " fill="#E8E8E8" transform="translate(144.19140625,90.40625)"/>
<path d="M0 0 C0 3.77910478 -0.99703962 4.46106101 -3.5 7.1875 C-4.47453125 8.26064453 -4.47453125 8.26064453 -5.46875 9.35546875 C-5.9740625 9.89816406 -6.479375 10.44085938 -7 11 C-7 7.65399937 -6.54040834 6.97685525 -4.625 4.375 C-4.18414062 3.76398438 -3.74328125 3.15296875 -3.2890625 2.5234375 C-2 1 -2 1 0 0 Z " fill="#E1E1E1" transform="translate(457,415)"/>
<path d="M0 0 C1.8828125 0.2265625 1.8828125 0.2265625 4 1 C5.1171875 2.9609375 5.1171875 2.9609375 5.875 5.375 C6.14054687 6.16648438 6.40609375 6.95796875 6.6796875 7.7734375 C7 10 7 10 5 13 C4.731875 11.783125 4.46375 10.56625 4.1875 9.3125 C3.31505639 5.77878956 2.07843061 3.0231718 0 0 Z " fill="#E5E5E5" transform="translate(351,185)"/>
<path d="M0 0 C0.33 0 0.66 0 1 0 C1.103125 1.2375 1.20625 2.475 1.3125 3.75 C1.73994057 7.36729558 2.68629381 9.1604515 5 12 C4.67 12.99 4.34 13.98 4 15 C-0.11888494 9.98010898 -0.51211281 6.40141012 0 0 Z " fill="#D4D5D4" transform="translate(98,103)"/>
<path d="M0 0 C0.99 0.33 1.98 0.66 3 1 C0.69 3.31 -1.62 5.62 -4 8 C-4.33 7.01 -4.66 6.02 -5 5 C-3.35 3.35 -1.7 1.7 0 0 Z " fill="#D5D6D5" transform="translate(200,18)"/>
<path d="M0 0 C0.33 0.66 0.66 1.32 1 2 C0.21654285 3.17219543 -0.57702836 4.33763668 -1.375 5.5 C-1.81585938 6.1496875 -2.25671875 6.799375 -2.7109375 7.46875 C-3.13632812 7.9740625 -3.56171875 8.479375 -4 9 C-4.66 9 -5.32 9 -6 9 C-4.47291037 5.56404834 -2.40072955 2.88087546 0 0 Z " fill="#D7D7D7" transform="translate(420,409)"/>
<path d="M0 0 C2.86453858 3.41016497 4.34703566 6.90694544 6 11 C3 10 3 10 1.3125 7.75 C-0.06511203 4.8635748 -0.26985151 3.14826764 0 0 Z " fill="#D0D0D0" transform="translate(17,254)"/>
<path d="M0 0 C0 3 0 3 -1.6875 5.1875 C-4.3961577 7.31050198 -5.64708882 7.37254569 -9 7 C-8.1646875 6.38125 -8.1646875 6.38125 -7.3125 5.75 C-4.83804044 3.87743601 -2.4164771 1.94660656 0 0 Z " fill="#DADADA" transform="translate(353,105)"/>
<path d="M0 0 C2.5 1.5625 2.5 1.5625 5 4 C5.3125 7.75 5.3125 7.75 5 11 C4.34 11 3.68 11 3 11 C3.0825 10.278125 3.165 9.55625 3.25 8.8125 C2.92573441 5.16451206 1.42680413 3.65431702 -1 1 C-0.67 0.67 -0.34 0.34 0 0 Z " fill="#E4E4E4" transform="translate(388,37)"/>
<path d="M0 0 C0.99 0.33 1.98 0.66 3 1 C1.02 3.31 -0.96 5.62 -3 8 C-3.99 7.67 -4.98 7.34 -6 7 C-4.02 4.69 -2.04 2.38 0 0 Z " fill="#E9E9E9" transform="translate(234,41)"/>
<path d="M0 0 C7.625 0.875 7.625 0.875 11 2 C11 2.66 11 3.32 11 4 C7.0507432 3.44894091 3.65079826 2.61064629 0 1 C0 0.67 0 0.34 0 0 Z " fill="#E0E0E0" transform="translate(170,500)"/>
<path d="M0 0 C0.66 0.33 1.32 0.66 2 1 C0.92892883 1.86949317 -0.15745944 2.72014205 -1.25 3.5625 C-1.85328125 4.03816406 -2.4565625 4.51382812 -3.078125 5.00390625 C-5 6 -5 6 -7.234375 5.65234375 C-7.81703125 5.43707031 -8.3996875 5.22179687 -9 5 C-7.54735962 4.1361871 -6.0876837 3.28419546 -4.625 2.4375 C-3.40683594 1.72400391 -3.40683594 1.72400391 -2.1640625 0.99609375 C-1.44992187 0.66738281 -0.73578125 0.33867187 0 0 Z " fill="#E3E3E3" transform="translate(397,471)"/>
<path d="M0 0 C3.33557632 2.9905167 5.15083921 5.93184627 7 10 C2.95868733 8.65289578 2.09711566 6.61571666 0 3 C0 2.01 0 1.02 0 0 Z " fill="#DEDDDD" transform="translate(102,390)"/>
<path d="M0 0 C3.8665284 3.222107 4.88059018 6.14922412 6 11 C2.1334716 7.777893 1.11940982 4.85077588 0 0 Z " fill="#E5E6E6" transform="translate(25,371)"/>
<path d="M0 0 C0 3 0 3 -2.3125 5.6875 C-5 8 -5 8 -8 8 C-5.36 5.36 -2.72 2.72 0 0 Z " fill="#D6D6D6" transform="translate(480,288)"/>
<path d="M0 0 C1 3 1 3 0.22265625 4.82421875 C-0.8515625 6.54947917 -1.92578125 8.27473958 -3 10 C-3.99 9.67 -4.98 9.34 -6 9 C-4.02 6.03 -2.04 3.06 0 0 Z " fill="#DBDBDB" transform="translate(241,31)"/>
<path d="M0 0 C0.33 0.66 0.66 1.32 1 2 C0.34 2 -0.32 2 -1 2 C-1.268125 2.78375 -1.53625 3.5675 -1.8125 4.375 C-3 7 -3 7 -6 9 C-5.52797514 4.75177626 -3.03344482 2.80010291 0 0 Z " fill="#E4E4E4" transform="translate(487,281)"/>
</svg>
