<svg width="85" height="20" viewBox="0 0 85 20" fill="none" xmlns="http://www.w3.org/2000/svg">
<path d="M4.96353 6.39007C4.96353 5.78871 5.46497 5.1623 6.64336 5.1623C7.72146 5.1623 8.47362 5.51309 9.7523 6.33996C9.95287 6.46524 10.1284 6.44018 10.2788 6.23973L12.1091 3.95959C12.2344 3.75914 12.2344 3.6088 12.0589 3.4334C10.5546 2.0553 8.82463 1.12821 6.49293 1.12821C3.60964 1.12821 0.776496 2.95733 0.776496 6.28984C0.776496 12.0779 8.69927 11.3011 8.69927 13.7316C8.69927 14.7088 7.72146 15.1598 6.74365 15.1598C5.36468 15.1598 4.28659 14.6838 2.93269 13.6565C2.73212 13.4811 2.50647 13.5312 2.38111 13.7066L0.450559 15.8865C0.300126 16.0619 0.325199 16.2623 0.450559 16.4127C1.60387 17.7407 3.96065 19.1939 6.61829 19.1939C9.57679 19.1939 12.8863 17.465 12.8863 13.7817C12.8863 7.61784 4.96353 8.87066 4.96353 6.39007Z" fill="white"/>
<path d="M27.0937 18.4172L22.1044 11.6269L26.3667 7.04154C26.5923 6.81603 26.492 6.59052 26.1661 6.59052H22.3301C22.1545 6.59052 22.0041 6.64063 21.8788 6.79097L18.2934 10.7248V0.952812C18.2934 0.727304 18.143 0.576965 17.9174 0.576965H14.5326C14.307 0.576965 14.1566 0.727304 14.1566 0.952812V18.4924C14.1566 18.7179 14.307 18.8682 14.5326 18.8682H17.9174C18.143 18.8682 18.2934 18.7179 18.2934 18.4924V16.5002L14.1566 8.94583L22.8064 18.6427C22.9318 18.8181 23.0571 18.8682 23.2577 18.8682H26.8681C27.169 18.8682 27.2693 18.6677 27.0937 18.4172Z" fill="white"/>
<path d="M37.1759 6.96637C36.8248 6.64063 36.198 6.3149 35.4459 6.3149C33.8914 6.3149 32.8885 7.21693 32.2617 8.46976L32.1614 6.96637C32.1364 6.74086 32.011 6.59052 31.7854 6.59052H28.526C28.3003 6.59052 28.1499 6.74086 28.1499 6.96637V18.4924C28.1499 18.7179 28.3003 18.8682 28.526 18.8682H31.9107C32.1364 18.8682 32.2868 18.7179 32.2868 18.4924V12.6792C32.2868 11.226 33.1392 10.0734 34.7188 10.0734C35.1701 10.0734 35.496 10.1736 35.7718 10.2738C36.0727 10.349 36.2983 10.2989 36.3986 9.97315L37.3263 7.56772C37.4015 7.39233 37.4015 7.19188 37.1759 6.96637Z" fill="white"/>
<path d="M49.8768 6.59052H46.818C46.5924 6.59052 46.467 6.74086 46.4419 6.96637L46.3667 7.89346C45.5143 6.94131 44.386 6.28984 43.0071 6.28984C39.6223 6.28984 37.1151 9.17134 37.1151 12.7544C37.1151 16.3375 39.6223 19.219 43.0071 19.219C44.4362 19.219 45.5393 18.5926 46.3667 17.7156L46.4419 18.4924C46.467 18.7179 46.5924 18.8682 46.818 18.8682H49.8768C50.1025 18.8682 50.2529 18.7179 50.2529 18.4924V6.96637C50.2529 6.74086 50.1025 6.59052 49.8768 6.59052ZM43.5336 15.4355C42.1295 15.4355 41.1016 14.2578 41.1016 12.7294C41.1016 11.2009 42.1295 10.0734 43.5336 10.0734C44.9627 10.0734 45.9906 11.3011 45.9906 12.7294C45.9906 14.1826 44.9627 15.4355 43.5336 15.4355Z" fill="white"/>
<path d="M59.3979 6.59052H57.6429V3.2079C57.6429 2.98239 57.4925 2.83205 57.2668 2.83205H53.8821C53.6564 2.83205 53.506 2.98239 53.506 3.2079V6.59052H51.7509C51.5253 6.59052 51.3749 6.74086 51.3749 6.96637V9.54719C51.3749 9.77269 51.5253 9.92303 51.7509 9.92303H53.506V18.4924C53.506 18.7179 53.6564 18.8682 53.8821 18.8682H57.2668C57.4925 18.8682 57.6429 18.7179 57.6429 18.4924V9.92303H59.3979C59.6236 9.92303 59.774 9.77269 59.774 9.54719V6.96637C59.774 6.74086 59.6236 6.59052 59.3979 6.59052Z" fill="white"/>
<path d="M66.6968 15.3352C65.2677 15.3352 64.2649 14.2077 64.2649 12.7544C64.2649 11.2761 65.2677 10.1485 66.6968 10.1485C67.3487 10.1485 68.0257 10.3741 68.7277 10.9754C68.9283 11.1508 69.1038 11.2009 69.2793 11.0255L71.3352 9.021C71.4856 8.87066 71.5107 8.67021 71.3603 8.49481C70.2069 7.16682 68.477 6.3149 66.5965 6.3149C63.0614 6.3149 60.2784 9.14628 60.2784 12.7544C60.2784 16.3625 63.0614 19.1939 66.5965 19.1939C68.5271 19.1939 70.2822 18.342 71.4355 17.014C71.5859 16.8386 71.5608 16.6382 71.4104 16.4878L69.3545 14.5084C69.179 14.333 69.0035 14.358 68.8029 14.5084C68.1009 15.1097 67.3989 15.3352 66.6968 15.3352Z" fill="white"/>
<path d="M80.5121 6.3149C78.7822 6.3149 77.5536 7.21693 76.8015 8.46976V0.952812C76.8015 0.727304 76.651 0.576965 76.4254 0.576965H73.0407C72.815 0.576965 72.6646 0.727304 72.6646 0.952812V18.4924C72.6646 18.7179 72.815 18.8682 73.0407 18.8682H76.4254C76.651 18.8682 76.8015 18.7179 76.8015 18.4924V12.2783C76.8015 11.677 77.3781 10.1736 78.9075 10.1736C79.76 10.1736 80.8632 10.5996 80.8632 12.554V18.4924C80.8632 18.7179 81.0136 18.8682 81.2392 18.8682H84.624C84.8496 18.8682 85 18.7179 85 18.4924V11.677C85 8.39459 82.9692 6.3149 80.5121 6.3149Z" fill="white"/>
</svg>
